<?xml version="1.0" encoding="UTF-8" standalone="no"?>
<!-- Created with Inkscape (http://www.inkscape.org/) -->

<svg
   width="24"
   height="24"
   viewBox="0 0 6.3499998 6.35"
   version="1.1"
   id="svg5"
   xmlns="http://www.w3.org/2000/svg"
   xmlns:svg="http://www.w3.org/2000/svg">
  <defs
     id="defs2" />
  <g
     id="layer1">
    <g
       id="g2646"
       transform="matrix(0.0493128,0,0,0.0493128,-1.7137907,-0.62196622)">
      <path
         id="rect877"
         style="fill:#fdfdfd;fill-opacity:1;stroke-width:0.264583"
         d="m 92.462573,33.417082 -50.000049,5.501989 v 37.304183 c 0,0.182539 0.15359,0.329696 0.344165,0.329696 h 49.312236 c 0.190576,0 0.343648,-0.147157 0.343648,-0.329696 z" />
      <path
         id="rect874"
         style="fill:#fdfdfd;fill-opacity:1;stroke-width:0.264583"
         d="m 156.37547,26.383403 -58.912685,6.483325 v 43.356526 c 0,0.182539 0.153589,0.329696 0.344165,0.329696 h 58.56852 z" />
      <path
         id="rect871"
         style="fill:#fdfdfd;fill-opacity:1;stroke-width:0.264583"
         d="m 42.806689,81.553162 c -0.190575,0 -0.344165,0.146639 -0.344165,0.329178 v 34.97719 l 50.000049,6.13658 V 81.88234 c 0,-0.182539 -0.153072,-0.329178 -0.343648,-0.329178 z" />
      <path
         id="rect868"
         style="fill:#fdfdfd;stroke-width:0.264583"
         d="m 97.80695,81.553162 c -0.190576,0 -0.344165,0.146641 -0.344165,0.329178 v 41.72717 l 58.912685,7.23057 V 81.553162 Z" />
    </g>
  </g>
</svg>
