<?xml version="1.0" encoding="UTF-8" standalone="no"?>
<!-- Created with Inkscape (http://www.inkscape.org/) -->

<svg
   width="20"
   height="20"
   viewBox="0 0 5.2916665 5.2916666"
   version="1.1"
   id="svg5"
   xml:space="preserve"
   inkscape:version="1.2.1 (9c6d41e410, 2022-07-14)"
   sodipodi:docname="lockeart-logo2.svg"
   xmlns:inkscape="http://www.inkscape.org/namespaces/inkscape"
   xmlns:sodipodi="http://sodipodi.sourceforge.net/DTD/sodipodi-0.dtd"
   xmlns:xlink="http://www.w3.org/1999/xlink"
   xmlns="http://www.w3.org/2000/svg"
   xmlns:svg="http://www.w3.org/2000/svg"><sodipodi:namedview
     id="namedview7"
     pagecolor="#505050"
     bordercolor="#ffffff"
     borderopacity="1"
     inkscape:showpageshadow="0"
     inkscape:pageopacity="0"
     inkscape:pagecheckerboard="1"
     inkscape:deskcolor="#505050"
     inkscape:document-units="mm"
     showgrid="false"
     inkscape:zoom="22.768838"
     inkscape:cx="4.611566"
     inkscape:cy="7.2906662"
     inkscape:window-width="1920"
     inkscape:window-height="986"
     inkscape:window-x="-11"
     inkscape:window-y="-11"
     inkscape:window-maximized="1"
     inkscape:current-layer="layer1" /><defs
     id="defs2"><inkscape:path-effect
       effect="fillet_chamfer"
       id="path-effect31842"
       is_visible="true"
       lpeversion="1"
       nodesatellites_param="F,0,0,1,0,0.26458333,0,1 @ F,0,0,1,0,0.28706412,0,1 @ F,0,0,1,0,0.26458333,0,1 @ F,0,0,1,0,0.26458333,0,1 @ F,0,0,1,0,0.26458333,0,1 @ F,0,0,1,0,0.26458333,0,1 @ F,0,0,1,0,0.26458333,0,1 @ F,0,0,1,0,0.26458333,0,1 @ F,0,0,1,0,0.14092458,0,1 @ F,0,0,1,0,0.37813197,0,1"
       unit="px"
       method="auto"
       mode="F"
       radius="1"
       chamfer_steps="1"
       flexible="false"
       use_knot_distance="true"
       apply_no_radius="true"
       apply_with_radius="true"
       only_selected="false"
       hide_knots="false" /><inkscape:path-effect
       effect="fillet_chamfer"
       id="path-effect31838"
       is_visible="true"
       lpeversion="1"
       nodesatellites_param="F,0,0,1,0,0.026458333,0,1 @ F,0,0,1,0,0.026458333,0,1 @ F,0,0,1,0,0.026458333,0,1 @ F,0,0,1,0,0.22689413,0,1 @ F,0,0,1,0,0.026458333,0,1 @ F,0,0,1,0,0.026458333,0,1 @ F,0,0,1,0,0.026458333,0,1 @ F,0,0,1,0,0.026458333,0,1"
       unit="px"
       method="auto"
       mode="F"
       radius="0.1"
       chamfer_steps="1"
       flexible="false"
       use_knot_distance="true"
       apply_no_radius="true"
       apply_with_radius="true"
       only_selected="false"
       hide_knots="false" /><inkscape:path-effect
       effect="fillet_chamfer"
       id="path-effect31834"
       is_visible="true"
       lpeversion="1"
       nodesatellites_param="F,0,0,1,0,0.13229167,0,1 @ F,0,0,1,0,0.13229167,0,1 @ F,0,0,1,0,0.13229167,0,1 @ F,0,0,1,0,0.13229167,0,1 @ F,0,0,1,0,0.13229167,0,1 @ F,0,0,1,0,0.13229167,0,1"
       unit="px"
       method="auto"
       mode="F"
       radius="0.5"
       chamfer_steps="1"
       flexible="false"
       use_knot_distance="true"
       apply_no_radius="true"
       apply_with_radius="true"
       only_selected="false"
       hide_knots="false" /><linearGradient
       id="linearGradient16329"><stop
         style="stop-color:#ed314e;stop-opacity:1;"
         offset="0"
         id="stop16333" /><stop
         style="stop-color:#ec7690;stop-opacity:1;"
         offset="0.5"
         id="stop16346" /></linearGradient><inkscape:path-effect
       effect="fillet_chamfer"
       id="path-effect11906"
       is_visible="true"
       lpeversion="1"
       nodesatellites_param="F,0,0,1,0,0.026458333,0,1 @ F,0,0,1,0,0.026458333,0,1 @ F,0,0,1,0,0.026458333,0,1 @ F,0,0,1,0,0.22689413,0,1 @ F,0,0,1,0,0.026458333,0,1 @ F,0,0,1,0,0.026458333,0,1 @ F,0,0,1,0,0.026458333,0,1 @ F,0,0,1,0,0.026458333,0,1"
       unit="px"
       method="auto"
       mode="F"
       radius="0.1"
       chamfer_steps="1"
       flexible="false"
       use_knot_distance="true"
       apply_no_radius="true"
       apply_with_radius="true"
       only_selected="false"
       hide_knots="false" /><inkscape:path-effect
       effect="fillet_chamfer"
       id="path-effect11846"
       is_visible="true"
       lpeversion="1"
       nodesatellites_param="F,0,0,1,0,0,0,1 @ F,0,0,1,0,0,0,1 @ F,0,0,1,0,0,0,1 @ F,0,0,1,0,0,0,1 @ F,0,0,1,0,0,0,1 @ F,0,0,1,0,0,0,1 @ F,0,0,1,0,0,0,1 @ F,0,0,1,0,0,0,1 @ F,0,0,1,0,0,0,1"
       unit="px"
       method="auto"
       mode="F"
       radius="0"
       chamfer_steps="1"
       flexible="false"
       use_knot_distance="true"
       apply_no_radius="true"
       apply_with_radius="true"
       only_selected="false"
       hide_knots="false" /><inkscape:path-effect
       effect="fillet_chamfer"
       id="path-effect6762"
       is_visible="true"
       lpeversion="1"
       nodesatellites_param="F,0,0,1,0,0.26458333,0,1 @ F,0,0,1,0,0.28706412,0,1 @ F,0,0,1,0,0.26458333,0,1 @ F,0,0,1,0,0.26458333,0,1 @ F,0,0,1,0,0.26458333,0,1 @ F,0,0,1,0,0.26458333,0,1 @ F,0,0,1,0,0.26458333,0,1 @ F,0,0,1,0,0.26458333,0,1 @ F,0,0,1,0,0.14092458,0,1 @ F,0,0,1,0,0.37813197,0,1"
       unit="px"
       method="auto"
       mode="F"
       radius="1"
       chamfer_steps="1"
       flexible="false"
       use_knot_distance="true"
       apply_no_radius="true"
       apply_with_radius="true"
       only_selected="false"
       hide_knots="false" /><inkscape:path-effect
       effect="fillet_chamfer"
       id="path-effect6760"
       is_visible="true"
       lpeversion="1"
       nodesatellites_param="F,0,0,1,0,0.13229167,0,1 @ F,0,0,1,0,0.13229167,0,1 @ F,0,0,1,0,0.13229167,0,1 @ F,0,0,1,0,0.13229167,0,1 @ F,0,0,1,0,0.13229167,0,1 @ F,0,0,1,0,0.13229167,0,1"
       unit="px"
       method="auto"
       mode="F"
       radius="0.5"
       chamfer_steps="1"
       flexible="false"
       use_knot_distance="true"
       apply_no_radius="true"
       apply_with_radius="true"
       only_selected="false"
       hide_knots="false" /><linearGradient
       inkscape:collect="always"
       xlink:href="#linearGradient16329"
       id="linearGradient16331"
       x1="0.80529058"
       y1="3.1895611"
       x2="4.808917"
       y2="3.1895611"
       gradientUnits="userSpaceOnUse"
       gradientTransform="rotate(90,2.6342792,2.716911)" /><filter
       inkscape:collect="always"
       style="color-interpolation-filters:sRGB"
       id="filter31919"
       x="-0.033596751"
       y="-0.033074015"
       width="1.0671935"
       height="1.066148"><feGaussianBlur
         inkscape:collect="always"
         stdDeviation="0.065173074"
         id="feGaussianBlur31921" /></filter></defs><g
     inkscape:label="图层 1"
     inkscape:groupmode="layer"
     id="layer1"><g
       id="g31810"
       style="display:inline"><circle
         style="display:none;fill:#000000;fill-opacity:1;stroke-width:0.324147"
         id="path197"
         cx="2.7419076"
         cy="-2.6911259"
         transform="rotate(89.70055)"
         r="2.1166666" /><path
         id="path307"
         style="display:inline;opacity:1;fill:#2e75b6;fill-opacity:1;stroke-width:0.378643"
         d="M 2.2224535,3.870448 C 2.6660171,4.0616204 3.1710562,4.0522225 3.6072004,3.8446802 3.6731566,3.8132945 3.7759527,3.7539975 3.8361813,3.7126698 4.5154217,3.2465881 4.7552912,2.3514336 4.4001217,1.6081674 4.3686141,1.542231 4.3092267,1.4394554 4.2678135,1.379286 3.9217352,0.87646832 3.3283525,0.60103238 2.7209241,0.66125199 c -0.072688,0.007206 -0.078233,0.0453555 -0.016468,0.0843486 0.1917473,0.12105279 0.356991,0.27973971 0.485704,0.46643131 0.04146,0.060135 0.1008585,0.1628723 0.1323542,0.2287775 0.3551983,0.7432583 0.1153546,1.6384189 -0.5638635,2.1045218 -0.060255,0.041349 -0.1631124,0.1005965 -0.229111,0.1318945 -0.095438,0.045259 -0.1949383,0.081406 -0.2971722,0.1079587 -0.070696,0.018361 -0.076993,0.056353 -0.00991,0.085264 z"
         inkscape:path-effect="#path-effect6760"
         inkscape:original-d="M 2.1031511,3.8133604 A 1.6779975,1.6779975 0 0 0 3.724295,3.7831944 1.6779975,1.6779975 0 0 0 4.3384616,1.4910936 1.6779975,1.6779975 0 0 0 2.5899253,0.67945951 1.6779975,1.6779975 0 0 1 3.2608805,1.3237901 1.6779975,1.6779975 0 0 1 2.646715,3.6158901 1.6779975,1.6779975 0 0 1 2.1031511,3.8133604 Z" /><path
         id="path4644"
         style="opacity:1;fill:#ffd966;fill-opacity:1;stroke-width:0.306486"
         d="M 2.2075971,4.8344098 C 2.7040874,4.9487043 3.2426957,4.8857668 3.72069,4.6175392 3.7334279,4.6103914 3.753942,4.5985475 3.7665065,4.5910872 4.7558771,4.0036338 5.0963103,2.733187 4.5332575,1.7297419 4.5260863,1.7169617 4.5142247,1.6964125 4.5067633,1.6838487 4.4618958,1.6082983 4.4124097,1.5356649 4.3586116,1.4663533 4.2818142,1.3674102 4.2598644,1.3567373 4.3092226,1.4405874 4.6738893,2.1004408 4.4590324,2.9023391 3.8360993,3.2780252 3.8235634,3.2855856 3.8030223,3.2974396 3.7902281,3.3044985 3.1678204,3.647895 2.388123,3.4502833 2.0025277,2.8596174 c -0.008,-0.012256 -0.024531,-0.016408 -0.037186,-0.0091 L 1.2942249,3.2379852 a 0.02645833,0.02645833 105 0 0 -0.00968,0.036143 l 0.8840808,1.5312732 c 0.00731,0.012655 0.024736,0.02573 0.038976,0.029009 z"
         inkscape:path-effect="#path-effect11906"
         inkscape:original-d="M 2.1818505,4.8283148 C 2.6933714,4.952756 3.2517674,4.8884571 3.7436743,4.604456 4.7582836,4.018669 5.1059145,2.7212909 4.5201312,1.7066814 4.4339363,1.557329 4.3298487,1.4190467 4.2101816,1.2948889 c 0.036136,0.04637 0.069221,0.09504 0.099041,0.1456985 0.3742337,0.648058 0.1521738,1.4767947 -0.495952,1.8509085 C 3.1794565,3.6571871 2.3732592,3.4526928 1.9882556,2.8372865 L 1.2713113,3.2512144 Z" /><path
         id="path6728"
         style="opacity:1;fill:url(#linearGradient16331);fill-opacity:1;fill-rule:evenodd;stroke-width:0.324147"
         d="M 1.0066803,4.0618903 C 1.5883525,4.823164 2.6157182,5.0974205 3.4984894,4.7298046 3.6447758,4.668886 3.7597805,4.593963 3.7680732,4.5939629 c -0.00166,-0.00503 -0.00166,-0.00503 -0.00166,-0.00503 C 3.0554471,4.737127 2.5888237,4.5723339 2.2828202,4.2250248 2.1863707,4.1155561 2.0663568,3.9081315 2.0194824,3.7699772 1.8464607,3.2600251 1.9986264,2.6916602 2.4032892,2.3363702 c 0.1096506,-0.096272 0.336469,-0.1436459 0.4391727,-0.055535 0.068929,0.059135 0.1402832,-0.057982 0.1428736,-0.2040489 0.00116,-0.065348 0.00275,-0.1345638 0.00254,-0.199454 C 2.9874122,1.7333929 2.8998688,1.5143702 2.8147525,1.3956634 2.6062972,1.1049431 2.3621079,0.92215933 2.0007836,0.88982858 1.9233207,0.88289732 1.7979656,0.89606078 1.7213772,0.90990993 1.6344052,0.9256367 1.4143519,1.0214465 1.256783,1.1580468 0.567056,1.7559876 0.36782688,2.7534663 0.73971539,3.6064835 0.79807903,3.7403548 0.91801909,3.9458534 1.0066803,4.0618903 Z"
         inkscape:path-effect="#path-effect6762"
         inkscape:original-d="M 0.85948943,3.8422318 C 1.4492743,4.8518092 2.7459105,5.1919604 3.7553292,4.6019029 c 0.00426,-0.00262 0.00848,-0.0053 0.012744,-0.00794 -6.278e-4,-0.00169 -0.00106,-0.00333 -0.00166,-0.00503 C 3.1524786,4.8247416 2.4582576,4.5795539 2.1286041,4.0105417 1.7590098,3.3705711 1.9781328,2.5521617 2.61805,2.1824807 2.7546654,2.1034988 2.8399584,2.3680217 2.9954546,2.3411111 2.9623373,2.2214705 3.0191721,1.7260704 2.9571782,1.6185201 2.6903916,1.1571223 2.3929674,0.8768947 1.8600528,0.88483383 l -0.29615,0.0535515 C 0.55450334,1.5280676 0.26978155,2.8328443 0.85948943,3.8422318 Z"
         sodipodi:nodetypes="ccccccccccc" /><image
         width="5.6918502"
         height="5.6116834"
         preserveAspectRatio="none"
         xlink:href="Snipaste_2022-09-06_15-17-11.png"
         id="image2744"
         x="0.093927622"
         y="-5.6223822"
         style="display:none;opacity:0.483965"
         sodipodi:insensitive="true"
         transform="rotate(90)" /><rect
         style="opacity:1;fill:#ffd966;fill-opacity:1;fill-rule:evenodd;stroke-width:0.264583"
         id="rect25404"
         width="0.23977864"
         height="0.82682288"
         x="1.1480724"
         y="0.26116976"
         rx="0.40237874"
         ry="0.37667301"
         transform="rotate(-4.43158)" /><rect
         style="opacity:1;fill:#ffd966;fill-opacity:1;fill-rule:evenodd;stroke-width:0.264583"
         id="rect25406"
         width="0.23977864"
         height="0.82682288"
         x="-0.0027899663"
         y="0.748321"
         rx="0.40237874"
         ry="0.37667301"
         transform="rotate(-40.02032)" /><rect
         style="opacity:1;fill:#ffd966;fill-opacity:1;fill-rule:evenodd;stroke-width:0.264583"
         id="rect25408"
         width="0.23977864"
         height="0.82682288"
         x="-1.0145241"
         y="0.56050783"
         rx="0.40237874"
         ry="0.37667301"
         transform="rotate(-66.23524)" /><circle
         style="opacity:1;fill:#e7efce;fill-opacity:1;fill-rule:evenodd;stroke-width:0.264583"
         id="path25482"
         cx="1.3600748"
         cy="-2.1059134"
         r="0.17776692"
         transform="rotate(90)" /></g><rect
       style="display:none;opacity:1;fill:#e7efce;fill-opacity:1;fill-rule:evenodd;stroke-width:0.264583"
       id="rect31916"
       width="5.2670159"
       height="5.2259316"
       x="0.016433747"
       y="0.02465062"
       rx="0.40237874"
       ry="0.37667301" /><g
       id="g31830"
       style="display:inline;mix-blend-mode:color;filter:url(#filter31919)"><circle
         style="display:none;fill:#000000;fill-opacity:1;stroke-width:0.324147"
         id="circle31812"
         cx="2.7419076"
         cy="-2.6911259"
         transform="rotate(89.70055)"
         r="2.1166666" /><path
         id="path31814"
         style="display:inline;opacity:1;fill:#2e75b6;fill-opacity:1;stroke-width:0.378643"
         d="M 2.2224535,3.870448 C 2.6660171,4.0616204 3.1710562,4.0522225 3.6072004,3.8446802 3.6731566,3.8132945 3.7759527,3.7539975 3.8361813,3.7126698 4.5154217,3.2465881 4.7552912,2.3514336 4.4001217,1.6081674 4.3686141,1.542231 4.3092267,1.4394554 4.2678135,1.379286 3.9217352,0.87646832 3.3283525,0.60103238 2.7209241,0.66125199 c -0.072688,0.007206 -0.078233,0.0453555 -0.016468,0.0843486 0.1917473,0.12105279 0.356991,0.27973968 0.485704,0.46643128 0.04146,0.060135 0.1008585,0.1628723 0.1323542,0.2287775 0.3551983,0.7432583 0.1153546,1.6384189 -0.5638635,2.1045218 -0.060255,0.041349 -0.1631124,0.1005965 -0.229111,0.1318945 -0.095438,0.045259 -0.1949383,0.081406 -0.2971722,0.1079587 -0.070696,0.018361 -0.076993,0.056353 -0.00991,0.085264 z"
         inkscape:original-d="M 2.1031511,3.8133604 A 1.6779975,1.6779975 0 0 0 3.724295,3.7831944 1.6779975,1.6779975 0 0 0 4.3384616,1.4910936 1.6779975,1.6779975 0 0 0 2.5899253,0.67945951 1.6779975,1.6779975 0 0 1 3.2608805,1.3237901 1.6779975,1.6779975 0 0 1 2.646715,3.6158901 1.6779975,1.6779975 0 0 1 2.1031511,3.8133604 Z"
         inkscape:path-effect="#path-effect31834" /><path
         id="path31816"
         style="opacity:1;fill:#ffd966;fill-opacity:1;stroke-width:0.306486"
         d="M 2.2075971,4.8344098 C 2.7040874,4.9487043 3.2426957,4.8857668 3.72069,4.6175392 3.7334279,4.6103914 3.753942,4.5985475 3.7665065,4.5910872 4.7558771,4.0036338 5.0963103,2.733187 4.5332575,1.7297419 4.5260863,1.7169617 4.5142247,1.6964125 4.5067633,1.6838487 4.4618958,1.6082983 4.4124097,1.5356649 4.3586116,1.4663533 4.2818142,1.3674102 4.2598644,1.3567373 4.3092226,1.4405874 4.6738893,2.1004408 4.4590324,2.9023391 3.8360993,3.2780252 3.8235634,3.2855856 3.8030223,3.2974396 3.7902281,3.3044985 3.1678204,3.647895 2.388123,3.4502833 2.0025277,2.8596174 c -0.008,-0.012256 -0.024531,-0.016408 -0.037186,-0.0091 L 1.2942249,3.2379852 a 0.02645833,0.02645833 105 0 0 -0.00968,0.036143 l 0.8840808,1.5312732 c 0.00731,0.012655 0.024736,0.02573 0.038976,0.029009 z"
         inkscape:original-d="M 2.1818505,4.8283148 C 2.6933714,4.952756 3.2517674,4.8884571 3.7436743,4.604456 4.7582836,4.018669 5.1059145,2.7212909 4.5201312,1.7066814 4.4339363,1.557329 4.3298487,1.4190467 4.2101816,1.2948889 c 0.036136,0.04637 0.069221,0.09504 0.099041,0.1456985 0.3742337,0.648058 0.1521738,1.4767947 -0.495952,1.8509085 C 3.1794565,3.6571871 2.3732592,3.4526928 1.9882556,2.8372865 L 1.2713113,3.2512144 Z"
         inkscape:path-effect="#path-effect31838" /><path
         id="path31818"
         style="opacity:1;fill:url(#linearGradient16331);fill-opacity:1;fill-rule:evenodd;stroke-width:0.324147"
         d="M 1.0066803,4.0618903 C 1.5883525,4.823164 2.6157182,5.0974205 3.4984894,4.7298046 3.6447758,4.668886 3.7597805,4.593963 3.7680732,4.5939629 c -0.00166,-0.00503 -0.00166,-0.00503 -0.00166,-0.00503 C 3.0554471,4.737127 2.5888237,4.5723339 2.2828202,4.2250248 2.1863707,4.1155561 2.0663568,3.9081315 2.0194824,3.7699772 1.8464607,3.2600251 1.9986264,2.6916602 2.4032892,2.3363702 c 0.1096506,-0.096272 0.336469,-0.1436459 0.4391727,-0.055535 0.068929,0.059135 0.1402832,-0.057982 0.1428736,-0.2040489 0.00116,-0.065348 0.00275,-0.1345638 0.00254,-0.199454 C 2.9874122,1.7333929 2.8998688,1.5143702 2.8147525,1.3956634 2.6062972,1.1049431 2.3621079,0.92215933 2.0007836,0.88982858 1.9233207,0.88289732 1.7979656,0.89606078 1.7213772,0.90990993 1.6344052,0.9256367 1.4143519,1.0214465 1.256783,1.1580468 0.567056,1.7559876 0.36782688,2.7534663 0.73971539,3.6064835 0.79807903,3.7403548 0.91801909,3.9458534 1.0066803,4.0618903 Z"
         sodipodi:nodetypes="ccccccccccc"
         inkscape:original-d="M 0.85948943,3.8422318 C 1.4492743,4.8518092 2.7459105,5.1919604 3.7553292,4.6019029 c 0.00426,-0.00262 0.00848,-0.0053 0.012744,-0.00794 -6.278e-4,-0.00169 -0.00106,-0.00333 -0.00166,-0.00503 C 3.1524786,4.8247416 2.4582576,4.5795539 2.1286041,4.0105417 1.7590098,3.3705711 1.9781328,2.5521617 2.61805,2.1824807 2.7546654,2.1034988 2.8399584,2.3680217 2.9954546,2.3411111 2.9623373,2.2214705 3.0191721,1.7260704 2.9571782,1.6185201 2.6903916,1.1571223 2.3929674,0.8768947 1.8600528,0.88483383 l -0.29615,0.0535515 C 0.55450334,1.5280676 0.26978155,2.8328443 0.85948943,3.8422318 Z"
         inkscape:path-effect="#path-effect31842" /><image
         width="5.6918502"
         height="5.6116834"
         preserveAspectRatio="none"
         xlink:href="Snipaste_2022-09-06_15-17-11.png"
         id="image31820"
         x="0.093927622"
         y="-5.6223822"
         style="display:none;opacity:0.483965"
         sodipodi:insensitive="true"
         transform="rotate(90)" /><rect
         style="opacity:1;fill:#ffd966;fill-opacity:1;fill-rule:evenodd;stroke-width:0.264583"
         id="rect31822"
         width="0.23977864"
         height="0.82682288"
         x="1.1480724"
         y="0.26116976"
         rx="0.40237874"
         ry="0.37667301"
         transform="rotate(-4.43158)" /><rect
         style="opacity:1;fill:#ffd966;fill-opacity:1;fill-rule:evenodd;stroke-width:0.264583"
         id="rect31824"
         width="0.23977864"
         height="0.82682288"
         x="-0.0027899663"
         y="0.748321"
         rx="0.40237874"
         ry="0.37667301"
         transform="rotate(-40.02032)" /><rect
         style="opacity:1;fill:#ffd966;fill-opacity:1;fill-rule:evenodd;stroke-width:0.264583"
         id="rect31826"
         width="0.23977864"
         height="0.82682288"
         x="-1.0145241"
         y="0.56050783"
         rx="0.40237874"
         ry="0.37667301"
         transform="rotate(-66.23524)" /><circle
         style="opacity:1;fill:#e7efce;fill-opacity:1;fill-rule:evenodd;stroke-width:0.264583"
         id="circle31828"
         cx="1.3600748"
         cy="-2.1059134"
         r="0.17776692"
         transform="rotate(90)" /></g></g></svg>
